<mxfile host="app.diagrams.net" agent="Mozilla/5.0 (Windows NT 10.0; Win64; x64) AppleWebKit/537.36 (KHTML, like Gecko) Chrome/139.0.0.0 Safari/537.36" version="27.2.0">
  <diagram name="Page-1" id="Ah_BVm8UG3qweHjtrVJi">
    <mxGraphModel dx="1489" dy="753" grid="1" gridSize="10" guides="1" tooltips="1" connect="1" arrows="1" fold="1" page="1" pageScale="1" pageWidth="827" pageHeight="1169" math="0" shadow="0">
      <root>
        <mxCell id="0" />
        <mxCell id="1" parent="0" />
        <mxCell id="hRZKgi0yS8pwd4xGPH1x-1" value="" style="rounded=1;whiteSpace=wrap;html=1;" vertex="1" parent="1">
          <mxGeometry x="30" y="80" width="160" height="380" as="geometry" />
        </mxCell>
        <mxCell id="hRZKgi0yS8pwd4xGPH1x-2" value="&lt;b&gt;&lt;font style=&quot;font-size: 20px;&quot;&gt;INPUT&lt;/font&gt;&lt;/b&gt;" style="text;html=1;align=center;verticalAlign=middle;whiteSpace=wrap;rounded=0;" vertex="1" parent="1">
          <mxGeometry x="70" y="40" width="60" height="30" as="geometry" />
        </mxCell>
        <mxCell id="hRZKgi0yS8pwd4xGPH1x-3" value="Kafka" style="text;html=1;align=center;verticalAlign=middle;whiteSpace=wrap;rounded=0;" vertex="1" parent="1">
          <mxGeometry x="70" y="110" width="60" height="30" as="geometry" />
        </mxCell>
        <mxCell id="hRZKgi0yS8pwd4xGPH1x-5" value="DB(SQL/NoSQL)" style="text;html=1;align=center;verticalAlign=middle;whiteSpace=wrap;rounded=0;" vertex="1" parent="1">
          <mxGeometry x="70" y="190" width="60" height="30" as="geometry" />
        </mxCell>
        <mxCell id="hRZKgi0yS8pwd4xGPH1x-6" value="API" style="text;html=1;align=center;verticalAlign=middle;whiteSpace=wrap;rounded=0;" vertex="1" parent="1">
          <mxGeometry x="70" y="255" width="60" height="30" as="geometry" />
        </mxCell>
        <mxCell id="hRZKgi0yS8pwd4xGPH1x-8" value="SAP BW" style="text;html=1;align=center;verticalAlign=middle;whiteSpace=wrap;rounded=0;" vertex="1" parent="1">
          <mxGeometry x="70" y="320" width="60" height="30" as="geometry" />
        </mxCell>
        <mxCell id="hRZKgi0yS8pwd4xGPH1x-9" value="Flat Files (CSV/JSON/Excel)" style="text;html=1;align=center;verticalAlign=middle;whiteSpace=wrap;rounded=0;" vertex="1" parent="1">
          <mxGeometry x="70" y="380" width="60" height="30" as="geometry" />
        </mxCell>
        <mxCell id="hRZKgi0yS8pwd4xGPH1x-10" value="" style="rounded=1;whiteSpace=wrap;html=1;" vertex="1" parent="1">
          <mxGeometry x="350" y="80" width="170" height="380" as="geometry" />
        </mxCell>
        <mxCell id="hRZKgi0yS8pwd4xGPH1x-11" value="&lt;b&gt;&lt;font style=&quot;font-size: 20px;&quot;&gt;PROCESSING&lt;/font&gt;&lt;/b&gt;" style="text;html=1;align=center;verticalAlign=middle;whiteSpace=wrap;rounded=0;" vertex="1" parent="1">
          <mxGeometry x="400" y="40" width="60" height="30" as="geometry" />
        </mxCell>
        <mxCell id="hRZKgi0yS8pwd4xGPH1x-12" value="" style="endArrow=classic;html=1;rounded=0;" edge="1" parent="1">
          <mxGeometry width="50" height="50" relative="1" as="geometry">
            <mxPoint x="210" y="130" as="sourcePoint" />
            <mxPoint x="340" y="130" as="targetPoint" />
          </mxGeometry>
        </mxCell>
        <mxCell id="hRZKgi0yS8pwd4xGPH1x-13" value="" style="endArrow=classic;html=1;rounded=0;" edge="1" parent="1">
          <mxGeometry width="50" height="50" relative="1" as="geometry">
            <mxPoint x="210" y="330" as="sourcePoint" />
            <mxPoint x="340" y="330" as="targetPoint" />
          </mxGeometry>
        </mxCell>
        <mxCell id="hRZKgi0yS8pwd4xGPH1x-14" value="Streaming Ingestion" style="text;html=1;align=center;verticalAlign=middle;whiteSpace=wrap;rounded=0;" vertex="1" parent="1">
          <mxGeometry x="240" y="90" width="60" height="30" as="geometry" />
        </mxCell>
        <mxCell id="hRZKgi0yS8pwd4xGPH1x-15" value="Batch Ingestion" style="text;html=1;align=center;verticalAlign=middle;whiteSpace=wrap;rounded=0;" vertex="1" parent="1">
          <mxGeometry x="240" y="285" width="60" height="30" as="geometry" />
        </mxCell>
        <mxCell id="hRZKgi0yS8pwd4xGPH1x-16" value="" style="rounded=1;whiteSpace=wrap;html=1;" vertex="1" parent="1">
          <mxGeometry x="375" y="100" width="120" height="60" as="geometry" />
        </mxCell>
        <mxCell id="hRZKgi0yS8pwd4xGPH1x-17" value="METRICS SET 1" style="text;html=1;align=center;verticalAlign=middle;whiteSpace=wrap;rounded=0;" vertex="1" parent="1">
          <mxGeometry x="385" y="100" width="100" height="30" as="geometry" />
        </mxCell>
        <mxCell id="hRZKgi0yS8pwd4xGPH1x-30" value="" style="edgeStyle=orthogonalEdgeStyle;rounded=0;orthogonalLoop=1;jettySize=auto;html=1;" edge="1" parent="1" source="hRZKgi0yS8pwd4xGPH1x-18" target="hRZKgi0yS8pwd4xGPH1x-28">
          <mxGeometry relative="1" as="geometry" />
        </mxCell>
        <mxCell id="hRZKgi0yS8pwd4xGPH1x-18" value="" style="rounded=1;whiteSpace=wrap;html=1;" vertex="1" parent="1">
          <mxGeometry x="375" y="220" width="120" height="60" as="geometry" />
        </mxCell>
        <mxCell id="hRZKgi0yS8pwd4xGPH1x-19" value="METRICS SET 2" style="text;html=1;align=center;verticalAlign=middle;whiteSpace=wrap;rounded=0;" vertex="1" parent="1">
          <mxGeometry x="382.5" y="220" width="95" height="30" as="geometry" />
        </mxCell>
        <mxCell id="hRZKgi0yS8pwd4xGPH1x-20" value="Spark Streaming/Flink" style="text;html=1;align=center;verticalAlign=middle;whiteSpace=wrap;rounded=0;" vertex="1" parent="1">
          <mxGeometry x="375" y="130" width="115" height="30" as="geometry" />
        </mxCell>
        <mxCell id="hRZKgi0yS8pwd4xGPH1x-21" value="Spark / dbt" style="text;html=1;align=center;verticalAlign=middle;whiteSpace=wrap;rounded=0;" vertex="1" parent="1">
          <mxGeometry x="392.5" y="250" width="85" height="30" as="geometry" />
        </mxCell>
        <mxCell id="hRZKgi0yS8pwd4xGPH1x-34" style="edgeStyle=orthogonalEdgeStyle;rounded=0;orthogonalLoop=1;jettySize=auto;html=1;exitX=0.5;exitY=1;exitDx=0;exitDy=0;entryX=0.5;entryY=0;entryDx=0;entryDy=0;" edge="1" parent="1" source="hRZKgi0yS8pwd4xGPH1x-28" target="hRZKgi0yS8pwd4xGPH1x-31">
          <mxGeometry relative="1" as="geometry" />
        </mxCell>
        <mxCell id="hRZKgi0yS8pwd4xGPH1x-28" value="Dimensional Data Modelling (Fact + Dim)" style="rounded=1;whiteSpace=wrap;html=1;" vertex="1" parent="1">
          <mxGeometry x="375" y="305" width="120" height="60" as="geometry" />
        </mxCell>
        <mxCell id="hRZKgi0yS8pwd4xGPH1x-31" value="Business Use Cases ETL Logics" style="rounded=1;whiteSpace=wrap;html=1;" vertex="1" parent="1">
          <mxGeometry x="375" y="390" width="120" height="60" as="geometry" />
        </mxCell>
        <mxCell id="hRZKgi0yS8pwd4xGPH1x-36" value="" style="rounded=1;whiteSpace=wrap;html=1;" vertex="1" parent="1">
          <mxGeometry x="142.5" y="490" width="580" height="190" as="geometry" />
        </mxCell>
        <mxCell id="hRZKgi0yS8pwd4xGPH1x-37" value="&lt;font style=&quot;font-size: 20px;&quot;&gt;DataLake Storage (S3)&lt;/font&gt;" style="text;html=1;align=center;verticalAlign=middle;whiteSpace=wrap;rounded=0;" vertex="1" parent="1">
          <mxGeometry x="330" y="490" width="230" height="30" as="geometry" />
        </mxCell>
        <mxCell id="hRZKgi0yS8pwd4xGPH1x-39" value="LANDING" style="shape=cylinder3;whiteSpace=wrap;html=1;boundedLbl=1;backgroundOutline=1;size=15;" vertex="1" parent="1">
          <mxGeometry x="170" y="560" width="60" height="80" as="geometry" />
        </mxCell>
        <mxCell id="hRZKgi0yS8pwd4xGPH1x-40" value="BRONZE (RAW)&amp;nbsp;" style="shape=cylinder3;whiteSpace=wrap;html=1;boundedLbl=1;backgroundOutline=1;size=15;" vertex="1" parent="1">
          <mxGeometry x="290" y="560" width="60" height="80" as="geometry" />
        </mxCell>
        <mxCell id="hRZKgi0yS8pwd4xGPH1x-41" value="SILVER&amp;nbsp;" style="shape=cylinder3;whiteSpace=wrap;html=1;boundedLbl=1;backgroundOutline=1;size=15;" vertex="1" parent="1">
          <mxGeometry x="425" y="560" width="60" height="80" as="geometry" />
        </mxCell>
        <mxCell id="hRZKgi0yS8pwd4xGPH1x-42" value="GOLD" style="shape=cylinder3;whiteSpace=wrap;html=1;boundedLbl=1;backgroundOutline=1;size=15;" vertex="1" parent="1">
          <mxGeometry x="550" y="560" width="60" height="80" as="geometry" />
        </mxCell>
        <mxCell id="hRZKgi0yS8pwd4xGPH1x-44" style="edgeStyle=orthogonalEdgeStyle;rounded=0;orthogonalLoop=1;jettySize=auto;html=1;exitX=1;exitY=0.5;exitDx=0;exitDy=0;exitPerimeter=0;entryX=0;entryY=0.5;entryDx=0;entryDy=0;entryPerimeter=0;" edge="1" parent="1" source="hRZKgi0yS8pwd4xGPH1x-39" target="hRZKgi0yS8pwd4xGPH1x-40">
          <mxGeometry relative="1" as="geometry" />
        </mxCell>
        <mxCell id="hRZKgi0yS8pwd4xGPH1x-45" style="edgeStyle=orthogonalEdgeStyle;rounded=0;orthogonalLoop=1;jettySize=auto;html=1;exitX=1;exitY=0.5;exitDx=0;exitDy=0;exitPerimeter=0;entryX=0;entryY=0.5;entryDx=0;entryDy=0;entryPerimeter=0;" edge="1" parent="1" source="hRZKgi0yS8pwd4xGPH1x-40" target="hRZKgi0yS8pwd4xGPH1x-41">
          <mxGeometry relative="1" as="geometry" />
        </mxCell>
        <mxCell id="hRZKgi0yS8pwd4xGPH1x-46" style="edgeStyle=orthogonalEdgeStyle;rounded=0;orthogonalLoop=1;jettySize=auto;html=1;exitX=1;exitY=0.5;exitDx=0;exitDy=0;exitPerimeter=0;entryX=0;entryY=0.5;entryDx=0;entryDy=0;entryPerimeter=0;" edge="1" parent="1" source="hRZKgi0yS8pwd4xGPH1x-41" target="hRZKgi0yS8pwd4xGPH1x-42">
          <mxGeometry relative="1" as="geometry" />
        </mxCell>
        <mxCell id="hRZKgi0yS8pwd4xGPH1x-48" value="&lt;font style=&quot;font-size: 16px;&quot;&gt;Medallion Architecture&lt;/font&gt;" style="text;html=1;align=center;verticalAlign=middle;whiteSpace=wrap;rounded=0;" vertex="1" parent="1">
          <mxGeometry x="357.5" y="650" width="175" height="30" as="geometry" />
        </mxCell>
      </root>
    </mxGraphModel>
  </diagram>
</mxfile>
